<svg width="1149" height="759" viewBox="0 0 1149 759" fill="none" xmlns="http://www.w3.org/2000/svg">
<path d="M1018.2 435.41L1035.35 447.087C1090.86 484.889 1113.22 555.819 1089.42 618.621C1068.03 675.067 1013.96 712.4 953.595 712.4H149.259C-16.7589 712.4 -151.343 577.816 -151.343 411.799C-151.343 310.842 -100.664 216.627 -16.427 160.981L20.0863 136.861C53.6006 114.722 90.3972 98.0078 129.12 87.3348L189.885 70.586C240.379 56.6685 293.858 57.9673 343.616 74.3197C400.986 93.1733 450.233 130.987 483.261 181.542L571.792 317.057L590.984 352.718C638.371 440.771 747.724 474.394 836.396 428.175L842.335 425.079C898.385 395.864 965.96 399.833 1018.2 435.41Z" fill="#202945"/>
<path d="M1122 623.773L1119.73 622.713L1122 623.773L1122.68 622.316C1129.14 608.522 1133.66 593.903 1136.12 578.872C1145.75 520.06 1123.04 460.609 1076.64 423.204L1048.56 400.562C990.635 353.865 909.563 348.766 846.247 387.838C763.701 438.778 655.347 410.682 607.954 326.051L565.13 249.579L548.365 212.695C490.239 84.8184 355.15 10.1736 215.953 29.017C185.05 33.2003 154.93 41.903 126.559 54.8459L-15.6703 119.73C-90.5256 151.79 -139.066 225.384 -139.066 306.818V392.472C-139.066 576.588 10.1889 725.843 194.305 725.843H961.52C1030.29 725.843 1092.84 686.055 1122 623.773Z" stroke="#61677A" stroke-width="5"/>
<path d="M464.383 379.466L464.376 379.399L464.365 379.332C433.919 198.922 231.701 105.452 74.5545 199.152L63.8575 205.53C51.8566 212.686 40.579 220.99 30.1837 230.326L-13.0646 269.167C-39.6219 293.018 -76.4702 301.759 -110.911 292.376C-139.612 284.558 -170.261 288.798 -195.761 304.115L-209.228 312.205C-253.138 338.58 -280 386.051 -280 437.274V554.297C-280 749.089 -122.089 907 72.703 907H830.241C911.991 907 986.04 858.762 1019.08 783.985L1023.72 773.482C1059.13 693.341 1035.69 599.391 966.781 545.277C912.644 502.763 839.867 492.543 776.114 518.503L727.858 538.153C609.077 586.521 477.174 507.078 464.383 379.466Z" fill="#0A1740" stroke="white" stroke-width="4"/>
<g clip-path="url(#clip0_25_2)">
<path d="M133.154 471.17C145.159 483.247 160.717 483.853 175.755 482.37C177.855 482.163 179.94 481.92 182.006 481.658C182.018 481.654 182.035 481.655 182.047 481.651C182.147 481.637 182.246 481.624 182.341 481.616C182.767 481.561 183.194 481.505 183.616 481.449L183.517 481.715L183.203 482.54C183.316 482.264 183.428 481.993 183.541 481.717C183.574 481.634 183.611 481.552 183.644 481.469C187.54 472.002 191.404 462.187 192.389 451.377C193.408 440.157 190.545 427.452 183.473 421.937C182.546 421.216 181.564 420.641 180.545 420.224C180.122 420.045 179.694 419.899 179.26 419.77C176.608 418.948 173.847 419.127 171.26 420.289C168.674 421.45 166.356 423.553 164.545 426.381C162.733 429.208 161.494 432.659 160.954 436.377C160.414 440.095 160.593 443.947 161.472 447.536C155.477 438.951 156.595 425.024 158.664 413.384C160.736 401.745 163.244 388.793 159.03 378.338C156.687 372.519 152.567 368.909 147.943 367.454C147.801 367.411 147.66 367.369 147.518 367.332C142.009 365.774 136.282 367.175 131.48 371.256C122.639 379.036 118.099 393.786 116.625 408.236C114.25 431.488 119.505 457.438 133.154 471.17Z" fill="#F2F2F2"/>
<path d="M137.03 433.896C137.379 439.025 138.261 444.056 139.649 448.829C140.928 453.053 142.653 456.986 144.765 460.498C149.156 467.675 154.717 473.275 160.981 476.826C165.719 479.536 170.683 481.399 175.755 482.37C177.855 482.163 179.94 481.92 182.006 481.658C182.018 481.654 182.034 481.655 182.047 481.651C182.146 481.638 182.246 481.624 182.341 481.617C182.767 481.561 183.194 481.505 183.616 481.449L183.516 481.715L183.203 482.54C183.316 482.264 183.428 481.993 183.541 481.717C183.574 481.634 183.611 481.552 183.644 481.469C179.841 476.178 177.002 469.692 175.364 462.553C173.727 455.415 173.338 447.832 174.231 440.441C175.166 433.101 177.329 426.174 180.545 420.224C180.122 420.045 179.693 419.899 179.26 419.77C178.038 422.104 176.965 424.583 176.056 427.18C172.793 436.442 171.752 446.925 173.087 457.077C174.328 466.263 177.421 474.765 182.001 481.583C181.6 481.544 181.195 481.498 180.799 481.447C173.292 480.559 165.801 478.306 158.992 473.69C153.172 469.84 148.12 464.051 144.279 456.832C140.156 448.89 138.339 439.338 138.027 429.629C137.787 419.17 138.572 408.713 140.36 398.551C142.095 388.188 144.731 378.161 148.21 368.692C148.287 368.478 148.303 368.229 148.253 367.999C148.204 367.768 148.093 367.573 147.943 367.454C147.818 367.337 147.665 367.293 147.517 367.332C147.445 367.359 147.378 367.408 147.321 367.476C147.264 367.544 147.219 367.629 147.189 367.725C146.76 368.894 146.339 370.065 145.934 371.248C142.559 381.106 140.075 391.512 138.538 402.225C137.046 412.56 136.249 423.372 137.03 433.896Z" fill="#2F2E41"/>
<path d="M739.036 463.727C720.923 481.949 697.449 482.864 674.759 480.625C671.591 480.313 668.445 479.947 665.328 479.552C665.309 479.545 665.284 479.547 665.265 479.54C665.115 479.52 664.965 479.501 664.822 479.489C664.179 479.405 663.535 479.321 662.898 479.236L663.048 479.637L663.521 480.882C663.351 480.465 663.181 480.057 663.012 479.641C662.962 479.516 662.906 479.391 662.856 479.266C656.978 464.982 651.148 450.174 649.661 433.863C648.124 416.934 652.444 397.764 663.114 389.443C664.513 388.355 665.995 387.488 667.532 386.859C668.17 386.588 668.817 386.369 669.471 386.174C673.473 384.933 677.639 385.203 681.541 386.956C685.443 388.709 688.941 391.882 691.674 396.148C694.407 400.414 696.277 405.62 697.091 411.23C697.906 416.84 697.636 422.652 696.309 428.068C705.355 415.114 703.668 394.101 700.547 376.538C697.421 358.976 693.636 339.434 699.995 323.66C703.53 314.88 709.746 309.433 716.722 307.238C716.936 307.174 717.15 307.11 717.364 307.054C725.676 304.703 734.318 306.817 741.562 312.975C754.901 324.713 761.752 346.969 763.976 368.771C767.559 403.854 759.63 443.007 739.036 463.727Z" fill="#F2F2F2"/>
<path d="M733.188 407.488C732.662 415.226 731.331 422.816 729.236 430.018C727.306 436.392 724.704 442.326 721.517 447.625C715.007 458.561 706.399 466.783 697.05 472.261C689.902 476.35 682.412 479.16 674.759 480.625C671.591 480.313 668.445 479.947 665.328 479.552C665.309 479.545 665.284 479.547 665.265 479.54C665.115 479.521 664.965 479.501 664.822 479.489C664.179 479.405 663.535 479.321 662.898 479.236L663.048 479.637L663.521 480.882C663.351 480.465 663.181 480.057 663.012 479.641C662.962 479.516 662.906 479.391 662.856 479.266C668.593 471.284 672.877 461.497 675.348 450.726C677.819 439.955 678.406 428.514 677.058 417.362C675.648 406.288 672.384 395.836 667.532 386.859C668.17 386.588 668.817 386.369 669.471 386.174C671.315 389.695 672.933 393.436 674.305 397.354C679.228 411.328 680.799 427.145 678.784 442.462C676.912 456.324 672.246 469.151 665.335 479.438C665.94 479.379 666.551 479.31 667.149 479.234C678.475 477.894 689.778 474.494 700.051 467.529C708.832 461.72 716.455 452.985 722.25 442.093C728.471 430.111 731.213 415.698 731.684 401.049C732.183 385.367 730.726 369.408 728.163 354.157C725.546 338.522 721.569 323.393 716.32 309.107C716.203 308.783 716.179 308.408 716.254 308.06C716.329 307.713 716.496 307.418 716.722 307.238C716.911 307.061 717.141 306.995 717.364 307.054C717.474 307.094 717.575 307.169 717.661 307.271C717.746 307.374 717.814 307.502 717.86 307.646C718.507 309.411 719.143 311.177 719.754 312.963C724.845 327.837 728.594 343.537 730.913 359.702C733.164 375.295 734.366 391.608 733.188 407.488Z" fill="#2F2E41"/>
<path d="M568.818 285.475H297.96C297.393 285.474 296.849 285.158 296.448 284.598C296.046 284.038 295.82 283.278 295.819 282.486V10.9905C295.82 10.198 296.046 9.43845 296.447 8.87801C296.848 8.31758 297.392 8.00188 297.96 8H568.817C569.384 8.00181 569.928 8.31733 570.33 8.87757C570.731 9.43781 570.957 10.1972 570.958 10.9896V282.485C570.957 283.277 570.731 284.037 570.33 284.597C569.929 285.157 569.385 285.473 568.818 285.475ZM297.961 9.82712C297.74 9.82788 297.528 9.9508 297.372 10.169C297.216 10.3872 297.128 10.6829 297.127 10.9914V282.485C297.128 282.793 297.216 283.089 297.372 283.307C297.529 283.525 297.74 283.648 297.961 283.648H568.817C569.038 283.647 569.249 283.524 569.405 283.306C569.561 283.088 569.649 282.792 569.65 282.484V10.9905C569.649 10.6821 569.561 10.3866 569.405 10.1686C569.249 9.95066 569.037 9.82787 568.816 9.82712H297.961Z" fill="#3F3D56"/>
<path d="M553.862 31.3175V224.257C553.862 224.894 553.772 225.526 553.597 226.115C553.423 226.704 553.167 227.24 552.844 227.691C552.521 228.142 552.138 228.5 551.716 228.744C551.294 228.988 550.842 229.114 550.385 229.114H315.84C315.673 229.116 315.507 229.098 315.342 229.06C314.514 228.894 313.758 228.316 313.21 227.434C312.663 226.552 312.362 225.424 312.362 224.257V31.3175C312.362 30.0296 312.728 28.7943 313.379 27.8834C314.031 26.9724 314.916 26.4604 315.838 26.46H550.383C550.84 26.4597 551.292 26.5851 551.714 26.829C552.136 27.0728 552.519 27.4303 552.842 27.8811C553.165 28.3318 553.422 28.867 553.596 29.4561C553.771 30.0452 553.861 30.6766 553.862 31.3142V31.3175Z" fill="#F2F2F2"/>
<path d="M371.484 141.178C388.338 141.178 402.001 122.098 402.001 98.5623C402.001 75.0265 388.338 55.9469 371.484 55.9469C354.63 55.9469 340.967 75.0265 340.967 98.5623C340.967 122.098 354.63 141.178 371.484 141.178Z" fill="#FF6584"/>
<path d="M467.182 229.888H317.474C317.287 229.891 317.1 229.87 316.915 229.826L387.72 58.5597C388.152 57.4931 388.779 56.6057 389.537 55.9884C390.295 55.371 391.157 55.0457 392.035 55.0457C392.912 55.0457 393.774 55.371 394.532 55.9884C395.29 56.6057 395.917 57.4931 396.349 58.5597L443.868 173.492L446.145 178.992L467.182 229.888Z" fill="#3F3D56"/>
<path opacity="0.2" d="M467.182 229.888H416.068L441.16 178.992L442.966 175.326L443.869 173.492L446.145 178.992L467.182 229.888Z" fill="black"/>
<path d="M550.538 229.888H421.053L446.145 178.992L447.951 175.326L480.647 108.999C482.791 104.652 487.948 104.381 490.468 108.179C490.637 108.438 490.794 108.712 490.939 108.999L550.538 229.888Z" fill="#3F3D56"/>
<path d="M304.531 280.658C306.825 280.658 308.685 278.06 308.685 274.857C308.685 271.653 306.825 269.055 304.531 269.055C302.237 269.055 300.377 271.653 300.377 274.857C300.377 278.06 302.237 280.658 304.531 280.658Z" fill="#6C63FF"/>
<path d="M304.531 24.8606C306.825 24.8606 308.685 22.2633 308.685 19.0594C308.685 15.8555 306.825 13.2583 304.531 13.2583C302.237 13.2583 300.377 15.8555 300.377 19.0594C300.377 22.2633 302.237 24.8606 304.531 24.8606Z" fill="#6C63FF"/>
<path d="M562.942 24.8606C565.236 24.8606 567.096 22.2633 567.096 19.0594C567.096 15.8555 565.236 13.2583 562.942 13.2583C560.647 13.2583 558.787 15.8555 558.787 19.0594C558.787 22.2633 560.647 24.8606 562.942 24.8606Z" fill="#6C63FF"/>
<path d="M562.942 280.658C565.236 280.658 567.096 278.06 567.096 274.857C567.096 271.653 565.236 269.055 562.942 269.055C560.647 269.055 558.787 271.653 558.787 274.857C558.787 278.06 560.647 280.658 562.942 280.658Z" fill="#6C63FF"/>
<path d="M245.35 470.961H253.37L257.186 427.76L245.348 427.761L245.35 470.961Z" fill="#A0616A"/>
<path d="M268.839 481.36L243.632 481.361L243.631 467.761L259.099 467.76C261.682 467.76 264.159 469.193 265.986 471.743C267.812 474.294 268.839 477.753 268.839 481.36Z" fill="#2F2E41"/>
<path d="M215.256 470.961H223.277L227.092 427.76L215.255 427.761L215.256 470.961Z" fill="#A0616A"/>
<path d="M238.745 481.36L213.538 481.361L213.538 467.761L229.006 467.76C231.589 467.76 234.066 469.193 235.892 471.743C237.719 474.294 238.745 477.753 238.745 481.36Z" fill="#2F2E41"/>
<path d="M216.236 342.297C217.1 341.52 217.832 340.489 218.38 339.275C218.928 338.061 219.278 336.695 219.407 335.271C219.535 333.848 219.439 332.402 219.124 331.036C218.809 329.671 218.284 328.418 217.585 327.366L222.866 222.711L207.654 224.771L207.236 327.26C206.049 329.017 205.364 331.321 205.312 333.735C205.26 336.15 205.844 338.507 206.953 340.361C208.063 342.214 209.621 343.435 211.331 343.792C213.042 344.148 214.787 343.616 216.236 342.297Z" fill="#A0616A"/>
<path d="M245.589 449.203C244.869 449.2 244.175 448.83 243.637 448.163C243.099 447.496 242.753 446.577 242.666 445.58L238.004 391.129C237.938 390.363 237.676 389.655 237.266 389.137C236.856 388.619 236.325 388.326 235.772 388.312C235.219 388.298 234.682 388.563 234.258 389.06C233.834 389.556 233.554 390.25 233.468 391.012L227.595 443.147C227.489 444.116 227.137 445 226.603 445.637C226.069 446.275 225.389 446.623 224.687 446.619H215.168C214.78 446.619 214.395 446.512 214.037 446.303C213.678 446.095 213.353 445.789 213.079 445.404C212.805 445.019 212.589 444.562 212.442 444.06C212.296 443.557 212.222 443.019 212.224 442.477L216.767 326.88C216.769 325.896 217.025 324.946 217.488 324.204C217.951 323.462 218.591 322.979 219.288 322.842L254.611 315.682C255.031 315.597 255.459 315.64 255.866 315.807C256.273 315.974 256.649 316.262 256.968 316.652C257.288 317.041 257.544 317.522 257.718 318.062C257.892 318.601 257.981 319.187 257.978 319.78L257.362 444.532C257.357 445.584 257.063 446.593 256.542 447.351C256.02 448.109 255.31 448.56 254.558 448.61L245.729 449.197C245.682 449.201 245.635 449.203 245.589 449.203Z" fill="#2F2E41"/>
<path d="M227.276 331.247C223.878 331.229 220.509 330.391 217.315 328.771C216.774 328.492 216.304 327.996 215.964 327.345C215.624 326.694 215.43 325.917 215.406 325.112C215.101 315.669 213.319 267.061 208.129 237.411C207.12 231.595 207.366 225.492 208.838 219.871C210.309 214.25 212.938 209.363 216.395 205.826C216.675 205.546 216.959 205.271 217.249 205.001C220.251 202.211 223.714 200.539 227.309 200.145C230.904 199.752 234.512 200.65 237.788 202.753C241.173 204.868 244.114 208.157 246.332 212.308C248.549 216.459 249.969 221.333 250.456 226.466L258.92 314.214C258.974 314.763 258.948 315.321 258.843 315.855C258.739 316.389 258.557 316.888 258.311 317.322C258.069 317.752 257.768 318.11 257.424 318.372C257.081 318.635 256.703 318.798 256.313 318.85C253.38 319.259 247.298 320.846 239.513 326.886C235.77 329.781 231.555 331.284 227.276 331.247Z" fill="#6C63FF"/>
<path d="M216.929 258.511L203 253.237C202.247 252.951 201.606 252.259 201.218 251.313C200.83 250.368 200.726 249.246 200.929 248.194L205.826 222.975C206.35 220.274 207.572 217.939 209.256 216.421C210.941 214.904 212.967 214.311 214.946 214.756C216.925 215.202 218.715 216.655 219.972 218.835C221.229 221.015 221.864 223.768 221.753 226.562L220.639 254.77C220.615 255.381 220.493 255.978 220.283 256.515C220.072 257.052 219.779 257.518 219.423 257.876C219.067 258.235 218.659 258.478 218.227 258.588C217.796 258.697 217.352 258.671 216.929 258.511Z" fill="#6C63FF"/>
<path d="M232.434 190.838C241.308 190.838 248.502 180.793 248.502 168.4C248.502 156.008 241.308 145.962 232.434 145.962C223.56 145.962 216.366 156.008 216.366 168.4C216.366 180.793 223.56 190.838 232.434 190.838Z" fill="#A0616A"/>
<path d="M290.66 212.484C290.58 212.977 290.528 213.478 290.504 213.982L262.401 236.622L255.57 231.131L248.288 244.443L262.901 258.988L294.962 223.667C296.27 224.343 297.694 224.447 299.045 223.965C300.396 223.483 301.609 222.438 302.525 220.969C303.44 219.5 304.013 217.677 304.169 215.742C304.324 213.807 304.054 211.852 303.394 210.137C302.734 208.422 301.716 207.028 300.475 206.14C299.234 205.253 297.829 204.914 296.447 205.168C295.064 205.423 293.77 206.26 292.737 207.566C291.703 208.873 290.979 210.588 290.66 212.484Z" fill="#A0616A"/>
<path d="M260.072 237.715L247.966 248.685C247.311 249.277 246.514 249.483 245.751 249.256C244.987 249.029 244.32 248.388 243.894 247.474L233.708 225.556C232.617 223.208 232.187 220.38 232.501 217.615C232.815 214.851 233.851 212.347 235.408 210.586C236.966 208.825 238.936 207.932 240.937 208.079C242.939 208.225 244.831 209.402 246.248 211.381L260.551 231.359C260.861 231.792 261.098 232.317 261.244 232.894C261.391 233.472 261.443 234.087 261.397 234.697C261.351 235.306 261.208 235.893 260.979 236.415C260.75 236.937 260.44 237.381 260.072 237.715Z" fill="#6C63FF"/>
<path d="M221.063 186.152C224.061 190.611 229.627 188.218 230.018 182.126C230.049 181.653 230.046 181.177 230.011 180.705C229.81 178.007 228.693 175.557 228.961 172.708C229.021 171.999 229.211 171.323 229.51 170.745C231.899 166.278 237.506 172.743 239.761 168.699C241.143 166.22 239.518 162.316 240.579 159.545C241.979 155.887 246.126 157.691 248.726 155.688C251.62 153.46 251.447 147.261 249.542 143.49C247.219 138.891 243.147 136.438 239.125 136.084C235.103 135.73 231.109 137.249 227.354 139.292C223.088 141.614 218.858 144.822 216.232 150.061C213.04 156.431 212.732 164.995 214.329 172.444C215.3 176.976 218.615 182.511 221.063 186.152Z" fill="#2F2E41"/>
<path d="M350.821 483H101.569C101.396 483 101.229 482.904 101.107 482.732C100.984 482.561 100.915 482.329 100.915 482.086C100.915 481.844 100.984 481.612 101.107 481.44C101.229 481.269 101.396 481.173 101.569 481.173H350.821C350.995 481.173 351.161 481.269 351.284 481.44C351.406 481.612 351.475 481.844 351.475 482.086C351.475 482.329 351.406 482.561 351.284 482.732C351.161 482.904 350.995 483 350.821 483Z" fill="#3F3D56"/>
<path d="M760.353 483H511.101C510.928 483 510.761 482.904 510.639 482.732C510.516 482.561 510.447 482.329 510.447 482.086C510.447 481.844 510.516 481.612 510.639 481.44C510.761 481.269 510.928 481.173 511.101 481.173H760.353C760.527 481.173 760.693 481.269 760.816 481.44C760.938 481.612 761.007 481.844 761.007 482.086C761.007 482.329 760.938 482.561 760.816 482.732C760.693 482.904 760.527 483 760.353 483Z" fill="#3F3D56"/>
<path d="M647.455 310.657C646.57 310.042 645.792 309.163 645.176 308.082C644.56 307.001 644.121 305.745 643.89 304.402C643.66 303.059 643.643 301.661 643.84 300.308C644.038 298.954 644.446 297.678 645.036 296.569L639.977 227.494H650.91L654.931 294.942C656.2 296.448 657.029 298.552 657.261 300.855C657.493 303.157 657.113 305.499 656.191 307.436C655.27 309.373 653.872 310.771 652.262 311.365C650.651 311.958 648.941 311.706 647.455 310.657Z" fill="#FFB8B8"/>
<path d="M637.416 189.373C645.96 189.373 652.885 179.701 652.885 167.771C652.885 155.841 645.96 146.17 637.416 146.17C628.873 146.17 621.948 155.841 621.948 167.771C621.948 179.701 628.873 189.373 637.416 189.373Z" fill="#FFB8B8"/>
<path d="M633.896 267.629L610.81 260.589C610.203 260.402 609.657 259.943 609.255 259.281C608.853 258.619 608.617 257.792 608.584 256.926C608.318 249.732 608.126 231.122 612.094 213.748C612.861 210.417 614.098 207.335 615.732 204.683C617.367 202.032 619.365 199.865 621.61 198.311C623.855 196.757 626.3 195.847 628.801 195.636C631.302 195.425 633.807 195.916 636.17 197.081C638.663 198.304 640.942 200.25 642.859 202.79C644.776 205.33 646.286 208.407 647.291 211.82C648.296 215.232 648.773 218.903 648.691 222.591C648.609 226.279 647.969 229.901 646.814 233.22C641.694 247.901 638.47 258.532 637.231 264.82C637.038 265.795 636.585 266.63 635.965 267.153C635.344 267.676 634.604 267.846 633.896 267.629Z" fill="#6C63FF"/>
<path d="M612.148 472.844L604.426 472.843L600.753 431.254H612.149L612.148 472.844Z" fill="#FFB8B8"/>
<path d="M598.911 469.762H613.802V482.855H589.535C589.535 481.135 589.778 479.433 590.249 477.844C590.72 476.256 591.411 474.812 592.281 473.597C593.152 472.381 594.185 471.416 595.323 470.758C596.461 470.101 597.68 469.762 598.911 469.762Z" fill="#2F2E41"/>
<path d="M689.356 458.869L682.591 464.063L665.022 430.092L675.008 422.425L689.356 458.869Z" fill="#FFB8B8"/>
<path d="M676.695 465.074L689.744 455.056L694.261 466.53L672.995 482.855C672.402 481.349 672.027 479.694 671.892 477.985C671.757 476.276 671.864 474.546 672.208 472.895C672.551 471.244 673.124 469.704 673.894 468.362C674.664 467.02 675.616 465.903 676.695 465.074Z" fill="#2F2E41"/>
<path d="M612.288 449.748L600.402 448.47C599.737 448.401 599.11 448.005 598.634 447.353C598.157 446.701 597.861 445.835 597.798 444.908C596.104 420.233 588.672 295.195 608.774 256.697L608.83 256.59L608.92 256.543C609.1 256.452 627.027 247.524 637.312 263.884C637.635 264.404 637.855 265.033 637.951 265.708C638.047 266.383 638.015 267.081 637.858 267.734L637.465 269.378C637.353 269.844 637.323 270.34 637.378 270.826C637.432 271.312 637.569 271.772 637.778 272.168C640.632 277.557 650.239 298.311 654.015 339.122C654.039 339.382 654.087 339.636 654.158 339.879L682.035 435.513C682.178 436.001 682.249 436.524 682.244 437.051C682.24 437.579 682.16 438.099 682.01 438.583C681.859 439.066 681.641 439.503 681.368 439.867C681.095 440.231 680.772 440.515 680.419 440.703L671.647 445.37C671.009 445.705 670.305 445.709 669.664 445.38C669.024 445.052 668.489 444.414 668.157 443.581L627.913 341.621C627.753 341.215 627.505 340.891 627.204 340.693C626.904 340.496 626.567 340.436 626.241 340.523C625.915 340.609 625.616 340.837 625.389 341.174C625.161 341.512 625.015 341.941 624.973 342.4L615.316 446.311C615.228 447.263 614.894 448.139 614.377 448.773C613.861 449.408 613.196 449.758 612.508 449.759C612.436 449.759 612.362 449.756 612.288 449.748Z" fill="#2F2E41"/>
<path d="M577.28 192.863C577.357 193.338 577.408 193.82 577.431 194.306L604.485 216.101L611.061 210.815L618.072 223.631L607.082 234.57C606.194 235.453 605.125 235.911 604.035 235.874C602.945 235.837 601.893 235.307 601.037 234.364L573.138 203.63C571.879 204.28 570.508 204.381 569.207 203.917C567.907 203.453 566.738 202.447 565.856 201.033C564.975 199.619 564.423 197.863 564.273 196C564.124 194.137 564.384 192.254 565.019 190.603C565.655 188.951 566.635 187.609 567.83 186.754C569.025 185.9 570.378 185.574 571.709 185.819C573.04 186.064 574.286 186.87 575.281 188.128C576.276 189.387 576.973 191.038 577.28 192.863Z" fill="#FFB8B8"/>
<path d="M604.857 213.923C604.939 213.366 605.105 212.839 605.346 212.38C605.586 211.921 605.894 211.54 606.25 211.262L618.665 201.568C620.315 199.791 622.402 199 624.468 199.368C626.535 199.736 628.413 201.233 629.69 203.531C630.968 205.829 631.54 208.741 631.283 211.628C631.026 214.515 629.96 217.142 628.318 218.933L618.419 233.287C618.137 233.697 617.794 234.016 617.415 234.225C617.036 234.433 616.63 234.524 616.223 234.493C615.816 234.462 615.419 234.309 615.059 234.044C614.698 233.78 614.383 233.41 614.134 232.959L605.39 217.134C605.141 216.684 604.965 216.164 604.873 215.609C604.781 215.055 604.775 214.48 604.857 213.923Z" fill="#6C63FF"/>
<path d="M636.994 243.81C636.678 243.453 636.42 243.004 636.239 242.495C636.058 241.985 635.957 241.427 635.945 240.859L635.499 221.005C635.128 218.142 635.586 215.19 636.772 212.797C637.957 210.404 639.774 208.765 641.823 208.239C643.873 207.714 645.988 208.345 647.705 209.994C649.422 211.643 650.6 214.175 650.982 217.036L655.549 235.916C655.679 236.455 655.724 237.026 655.682 237.592C655.64 238.158 655.511 238.704 655.304 239.194C655.097 239.684 654.817 240.105 654.483 240.43C654.148 240.755 653.768 240.976 653.367 241.077L639.281 244.629C638.88 244.73 638.468 244.709 638.074 244.568C637.679 244.427 637.311 244.168 636.994 243.81Z" fill="#6C63FF"/>
<path d="M634.968 162.803C630.992 166.603 625.772 170.509 621.711 166.462C620.441 165.111 619.518 163.223 619.081 161.078C618.644 158.934 618.716 156.65 619.286 154.567C621.231 146.803 626.573 143.384 631.681 140.764C638.322 137.358 645.553 134.648 652.409 137.087C659.264 139.527 665.323 148.796 664.086 158.523C663.09 166.345 657.807 172.854 658.557 180.73C659.312 188.656 665.695 192.828 671.33 194.245C676.965 195.661 683.271 196.116 687.321 201.769C692.488 208.979 691.198 221.868 686.336 229.481C681.475 237.094 674.139 240.545 667.03 242.891C657.612 245.999 647.425 247.633 638.48 242.474C629.535 237.316 622.574 223.43 625.165 210.408C626.259 204.908 628.838 200.26 631.33 195.735C633.822 191.209 636.345 186.477 637.296 180.925C638.088 176.298 637.501 170.926 635.304 167.456C634.905 166.848 634.653 166.08 634.586 165.26C634.519 164.441 634.639 163.612 634.93 162.894L634.968 162.803Z" fill="#2F2E41"/>
</g>
<defs>
<clipPath id="clip0_25_2">
<rect width="663.893" height="475" fill="white" transform="translate(100.915 8)"/>
</clipPath>
</defs>
</svg>
