<svg width="1114" height="759" viewBox="0 0 1114 759" fill="none" xmlns="http://www.w3.org/2000/svg">
<path d="M993.84 438.476L1005.86 447.094C1059.07 485.224 1080.48 554.044 1058.31 615.629C1037.4 673.691 982.319 712.4 920.608 712.4H181.946C14.2693 712.4 -121.66 576.471 -121.66 408.794C-121.66 309.381 -72.9897 216.266 8.63425 159.516L38.8944 138.478C72.2642 115.277 109.192 97.6693 148.225 86.3459L200.906 71.0633C249.842 56.867 301.976 58.1878 350.131 74.8438C403.621 93.3453 449.114 129.694 478.963 177.783L565.413 317.057L586.2 357.711C629.266 441.935 734.05 473.582 816.986 428.084C872.95 397.383 941.957 401.291 993.84 438.476Z" fill="#202945"/>
<path d="M1043.08 421.435L1018.3 400.406C963.865 354.219 885.578 349.216 825.711 388.1C748.671 438.138 645.305 411.425 602.155 330.325L559.217 249.624L539.273 203.446C486.699 81.7119 359.148 10.2319 227.873 28.9357C198.114 33.1757 169.181 41.9541 142.083 54.9649L7.15331 119.749C-64.226 151.926 -110.12 222.953 -110.12 301.252V389.772C-110.12 575.379 40.3444 725.843 225.951 725.843H929.907C998.624 725.843 1060.98 685.179 1088.91 622.398C1095.06 608.55 1099.38 593.906 1101.71 578.928C1110.91 519.803 1088.7 460.149 1043.08 421.435Z" stroke="#61677A" stroke-width="5"/>
<path d="M463.46 379.475L463.454 379.412L463.444 379.348L462.575 373.932C434.476 198.686 236.617 108.974 86.2834 203.317L82.4281 205.736C71.2144 212.774 60.7211 220.898 51.1001 229.992L8.74709 270.026C-15.7641 293.195 -50.685 301.704 -83.1069 292.408C-110.369 284.591 -139.671 288.788 -163.643 303.943L-178.926 313.606C-219.438 339.218 -244 383.804 -244 431.734V550.908C-244 747.572 -84.5724 907 112.092 907H800.676C884.384 907 959.924 856.785 992.325 779.602L998.442 765.031C1030.29 689.176 1008.69 601.417 945.277 549.005C891.403 504.477 817.161 493.794 752.918 521.327L723.675 533.86C607.033 583.85 475.491 505.807 463.46 379.475Z" fill="#0A1740" stroke="white" stroke-width="4"/>
<g clip-path="url(#clip0_25_2)">
<path d="M148.65 471.17C160.056 483.247 174.838 483.853 189.126 482.37C191.121 482.163 193.103 481.92 195.065 481.658C195.077 481.654 195.093 481.655 195.105 481.651C195.199 481.637 195.294 481.624 195.384 481.616C195.789 481.561 196.194 481.505 196.595 481.449L196.501 481.715L196.203 482.54C196.31 482.264 196.417 481.993 196.524 481.717C196.555 481.634 196.591 481.552 196.622 481.469C200.323 472.002 203.994 462.187 204.931 451.377C205.899 440.157 203.178 427.452 196.459 421.937C195.578 421.216 194.645 420.641 193.677 420.224C193.275 420.045 192.868 419.899 192.456 419.77C189.936 418.948 187.313 419.127 184.856 420.289C182.398 421.45 180.196 423.553 178.475 426.381C176.754 429.208 175.576 432.659 175.063 436.377C174.55 440.095 174.72 443.947 175.556 447.536C169.859 438.951 170.922 425.024 172.887 413.384C174.856 401.745 177.239 388.793 173.235 378.338C171.009 372.519 167.094 368.909 162.701 367.454C162.566 367.411 162.432 367.369 162.297 367.332C157.063 365.774 151.621 367.175 147.059 371.256C138.659 379.036 134.345 393.786 132.945 408.236C130.689 431.488 135.681 457.438 148.65 471.17Z" fill="#F2F2F2"/>
<path d="M152.333 433.896C152.664 439.025 153.502 444.056 154.821 448.829C156.037 453.053 157.675 456.986 159.682 460.498C163.854 467.675 169.138 473.275 175.089 476.826C179.591 479.536 184.307 481.399 189.126 482.37C191.122 482.163 193.103 481.92 195.065 481.658C195.077 481.654 195.093 481.655 195.105 481.651C195.199 481.638 195.294 481.624 195.384 481.617C195.789 481.561 196.194 481.505 196.596 481.449L196.501 481.715L196.203 482.54C196.31 482.264 196.417 481.993 196.524 481.717C196.555 481.634 196.591 481.552 196.622 481.469C193.009 476.178 190.311 469.692 188.755 462.553C187.199 455.415 186.83 447.832 187.678 440.441C188.566 433.101 190.622 426.174 193.677 420.224C193.276 420.045 192.868 419.899 192.456 419.77C191.295 422.104 190.277 424.583 189.412 427.18C186.312 436.442 185.323 446.925 186.591 457.077C187.771 466.263 190.709 474.765 195.061 481.583C194.68 481.544 194.295 481.498 193.919 481.447C186.786 480.559 179.669 478.306 173.2 473.69C167.67 469.84 162.869 464.051 159.221 456.832C155.303 448.89 153.576 439.338 153.28 429.629C153.052 419.17 153.797 408.713 155.497 398.551C157.145 388.188 159.649 378.161 162.955 368.692C163.029 368.478 163.044 368.229 162.996 367.999C162.949 367.768 162.844 367.573 162.701 367.454C162.583 367.337 162.437 367.293 162.297 367.332C162.228 367.359 162.164 367.408 162.11 367.476C162.056 367.544 162.014 367.629 161.985 367.725C161.577 368.894 161.177 370.065 160.792 371.248C157.586 381.106 155.226 391.512 153.765 402.225C152.347 412.56 151.591 423.372 152.333 433.896Z" fill="#2F2E41"/>
<path d="M724.317 463.727C707.106 481.949 684.803 482.864 663.245 480.625C660.235 480.313 657.246 479.947 654.284 479.552C654.266 479.545 654.243 479.547 654.225 479.54C654.082 479.52 653.94 479.501 653.804 479.489C653.192 479.405 652.581 479.321 651.975 479.236L652.118 479.637L652.567 480.882C652.406 480.465 652.245 480.057 652.083 479.641C652.036 479.516 651.983 479.391 651.936 479.266C646.351 464.982 640.812 450.174 639.399 433.863C637.938 416.934 642.043 397.764 652.181 389.443C653.51 388.355 654.918 387.488 656.378 386.859C656.985 386.588 657.599 386.369 658.221 386.174C662.023 384.933 665.981 385.203 669.689 386.956C673.396 388.709 676.719 391.882 679.316 396.148C681.913 400.414 683.69 405.62 684.464 411.23C685.238 416.84 684.981 422.652 683.72 428.068C692.315 415.114 690.712 394.101 687.747 376.538C684.777 358.976 681.18 339.434 687.222 323.66C690.581 314.88 696.487 309.433 703.116 307.238C703.319 307.174 703.522 307.11 703.726 307.054C711.623 304.703 719.833 306.817 726.717 312.975C739.39 324.713 745.9 346.969 748.013 368.771C751.417 403.854 743.884 443.007 724.317 463.727Z" fill="#F2F2F2"/>
<path d="M718.76 407.488C718.26 415.226 716.996 422.816 715.006 430.018C713.172 436.392 710.7 442.326 707.672 447.625C701.486 458.561 693.307 466.783 684.424 472.261C677.633 476.35 670.516 479.16 663.245 480.625C660.235 480.313 657.246 479.947 654.284 479.552C654.266 479.545 654.243 479.547 654.225 479.54C654.082 479.521 653.94 479.501 653.804 479.489C653.192 479.405 652.581 479.321 651.975 479.236L652.118 479.637L652.567 480.882C652.406 480.465 652.245 480.057 652.083 479.641C652.036 479.516 651.983 479.391 651.936 479.266C657.387 471.284 661.457 461.497 663.805 450.726C666.153 439.955 666.71 428.514 665.43 417.362C664.09 406.288 660.989 395.836 656.378 386.859C656.985 386.588 657.599 386.369 658.221 386.174C659.973 389.695 661.51 393.436 662.813 397.354C667.491 411.328 668.984 427.145 667.07 442.462C665.29 456.324 660.857 469.151 654.291 479.438C654.865 479.379 655.446 479.31 656.014 479.234C666.776 477.894 677.515 474.494 687.275 467.529C695.619 461.72 702.862 452.985 708.367 442.093C714.279 430.111 716.884 415.698 717.331 401.049C717.806 385.367 716.421 369.408 713.986 354.157C711.499 338.522 707.72 323.393 702.733 309.107C702.622 308.783 702.599 308.408 702.67 308.06C702.742 307.713 702.901 307.418 703.116 307.238C703.294 307.061 703.514 306.995 703.726 307.054C703.829 307.094 703.926 307.169 704.007 307.271C704.089 307.374 704.153 307.502 704.196 307.646C704.812 309.411 705.415 311.177 705.996 312.963C710.834 327.837 714.395 343.537 716.598 359.702C718.738 375.295 719.879 391.608 718.76 407.488Z" fill="#2F2E41"/>
<path d="M562.587 285.475H305.237C304.698 285.474 304.181 285.158 303.8 284.598C303.419 284.038 303.204 283.278 303.202 282.486V10.9905C303.204 10.198 303.418 9.43845 303.799 8.87801C304.181 8.31758 304.697 8.00188 305.237 8H562.586C563.125 8.00181 563.642 8.31733 564.023 8.87757C564.405 9.43781 564.619 10.1972 564.621 10.9896V282.485C564.619 283.277 564.405 284.037 564.024 284.597C563.643 285.157 563.126 285.473 562.587 285.475ZM305.238 9.82712C305.028 9.82788 304.826 9.9508 304.678 10.169C304.53 10.3872 304.446 10.6829 304.446 10.9914V282.485C304.446 282.793 304.53 283.089 304.678 283.307C304.827 283.525 305.028 283.648 305.238 283.648H562.586C562.796 283.647 562.997 283.524 563.145 283.306C563.293 283.088 563.377 282.792 563.378 282.484V10.9905C563.377 10.6821 563.293 10.3866 563.145 10.1686C562.997 9.95066 562.795 9.82787 562.586 9.82712H305.238Z" fill="#3F3D56"/>
<path d="M548.377 31.3175V224.257C548.377 224.894 548.292 225.526 548.126 226.115C547.96 226.704 547.717 227.24 547.41 227.691C547.103 228.142 546.739 228.5 546.338 228.744C545.937 228.988 545.508 229.114 545.074 229.114H322.226C322.067 229.116 321.909 229.098 321.752 229.06C320.966 228.894 320.247 228.316 319.727 227.434C319.207 226.552 318.921 225.424 318.921 224.257V31.3175C318.92 30.0296 319.268 28.7943 319.888 27.8834C320.507 26.9724 321.347 26.4604 322.223 26.46H545.072C545.506 26.4597 545.935 26.5851 546.336 26.829C546.737 27.0728 547.101 27.4303 547.408 27.8811C547.715 28.3318 547.959 28.867 548.125 29.4561C548.291 30.0452 548.377 30.6766 548.377 31.3142V31.3175Z" fill="#F2F2F2"/>
<path d="M375.094 141.178C391.108 141.178 404.089 122.098 404.089 98.5623C404.089 75.0265 391.108 55.9469 375.094 55.9469C359.08 55.9469 346.099 75.0265 346.099 98.5623C346.099 122.098 359.08 141.178 375.094 141.178Z" fill="#FF6584"/>
<path d="M466.02 229.888H323.778C323.6 229.891 323.422 229.87 323.247 229.826L390.52 58.5597C390.931 57.4931 391.527 56.6057 392.247 55.9884C392.967 55.371 393.786 55.0457 394.62 55.0457C395.454 55.0457 396.273 55.371 396.993 55.9884C397.713 56.6057 398.309 57.4931 398.72 58.5597L443.869 173.492L446.032 178.992L466.02 229.888Z" fill="#3F3D56"/>
<path opacity="0.2" d="M466.02 229.888H417.455L441.295 178.992L443.011 175.326L443.869 173.492L446.032 178.992L466.02 229.888Z" fill="black"/>
<path d="M545.219 229.888H422.191L446.032 178.992L447.747 175.326L478.813 108.999C480.85 104.652 485.75 104.381 488.144 108.179C488.305 108.438 488.455 108.712 488.592 108.999L545.219 229.888Z" fill="#3F3D56"/>
<path d="M311.48 280.658C313.66 280.658 315.427 278.06 315.427 274.857C315.427 271.653 313.66 269.055 311.48 269.055C309.3 269.055 307.533 271.653 307.533 274.857C307.533 278.06 309.3 280.658 311.48 280.658Z" fill="#6C63FF"/>
<path d="M311.48 24.8606C313.66 24.8606 315.427 22.2633 315.427 19.0594C315.427 15.8555 313.66 13.2583 311.48 13.2583C309.3 13.2583 307.533 15.8555 307.533 19.0594C307.533 22.2633 309.3 24.8606 311.48 24.8606Z" fill="#6C63FF"/>
<path d="M557.004 24.8606C559.184 24.8606 560.951 22.2633 560.951 19.0594C560.951 15.8555 559.184 13.2583 557.004 13.2583C554.824 13.2583 553.057 15.8555 553.057 19.0594C553.057 22.2633 554.824 24.8606 557.004 24.8606Z" fill="#6C63FF"/>
<path d="M557.004 280.658C559.184 280.658 560.951 278.06 560.951 274.857C560.951 271.653 559.184 269.055 557.004 269.055C554.824 269.055 553.057 271.653 553.057 274.857C553.057 278.06 554.824 280.658 557.004 280.658Z" fill="#6C63FF"/>
<path d="M255.25 470.961H262.871L266.496 427.76L255.249 427.761L255.25 470.961Z" fill="#A0616A"/>
<path d="M277.568 481.36L253.618 481.361L253.617 467.761L268.314 467.76C270.768 467.76 273.122 469.193 274.857 471.743C276.593 474.294 277.568 477.753 277.568 481.36Z" fill="#2F2E41"/>
<path d="M226.658 470.961H234.278L237.903 427.76L226.656 427.761L226.658 470.961Z" fill="#A0616A"/>
<path d="M248.975 481.36L225.025 481.361L225.025 467.761L239.721 467.76C242.175 467.76 244.529 469.193 246.265 471.743C248 474.294 248.975 477.753 248.975 481.36Z" fill="#2F2E41"/>
<path d="M227.589 342.297C228.41 341.52 229.105 340.489 229.625 339.275C230.146 338.061 230.479 336.695 230.601 335.271C230.723 333.848 230.632 332.402 230.333 331.036C230.034 329.671 229.535 328.418 228.87 327.366L233.888 222.711L219.435 224.771L219.038 327.26C217.91 329.017 217.259 331.321 217.21 333.735C217.16 336.15 217.715 338.507 218.769 340.361C219.823 342.214 221.303 343.435 222.929 343.792C224.554 344.148 226.212 343.616 227.589 342.297Z" fill="#A0616A"/>
<path d="M255.478 449.203C254.794 449.2 254.134 448.83 253.623 448.163C253.112 447.496 252.783 446.577 252.7 445.58L248.27 391.129C248.208 390.363 247.959 389.655 247.569 389.137C247.18 388.619 246.676 388.326 246.15 388.312C245.625 388.298 245.114 388.563 244.712 389.06C244.309 389.556 244.043 390.25 243.961 391.012L238.381 443.147C238.28 444.116 237.946 445 237.438 445.637C236.931 446.275 236.285 446.623 235.618 446.619H226.574C226.205 446.619 225.839 446.512 225.499 446.303C225.158 446.095 224.849 445.789 224.589 445.404C224.329 445.019 224.123 444.562 223.984 444.06C223.844 443.557 223.774 443.019 223.777 442.477L228.093 326.88C228.095 325.896 228.338 324.946 228.778 324.204C229.218 323.462 229.826 322.979 230.489 322.842L264.05 315.682C264.449 315.597 264.855 315.64 265.242 315.807C265.628 315.974 265.986 316.262 266.289 316.652C266.593 317.041 266.836 317.522 267.002 318.062C267.167 318.601 267.252 319.187 267.249 319.78L266.663 444.532C266.659 445.584 266.38 446.593 265.884 447.351C265.389 448.109 264.714 448.56 263.999 448.61L255.61 449.197C255.566 449.201 255.522 449.203 255.478 449.203Z" fill="#2F2E41"/>
<path d="M238.078 331.247C234.85 331.229 231.648 330.391 228.614 328.771C228.1 328.492 227.653 327.996 227.33 327.345C227.007 326.694 226.823 325.917 226.8 325.112C226.511 315.669 224.817 267.061 219.885 237.411C218.927 231.595 219.161 225.492 220.559 219.871C221.957 214.25 224.456 209.363 227.74 205.826C228.005 205.546 228.276 205.271 228.551 205.001C231.403 202.211 234.694 200.539 238.11 200.145C241.525 199.752 244.953 200.65 248.066 202.753C251.282 204.868 254.077 208.157 256.183 212.308C258.29 216.459 259.639 221.333 260.102 226.466L268.144 314.214C268.195 314.763 268.171 315.321 268.071 315.855C267.972 316.389 267.799 316.888 267.565 317.322C267.336 317.752 267.049 318.11 266.723 318.372C266.396 318.635 266.037 318.798 265.667 318.85C262.88 319.259 257.101 320.846 249.705 326.886C246.148 329.781 242.144 331.284 238.078 331.247Z" fill="#6C63FF"/>
<path d="M228.247 258.511L215.013 253.237C214.297 252.951 213.688 252.259 213.32 251.313C212.951 250.368 212.852 249.246 213.045 248.194L217.697 222.975C218.196 220.274 219.357 217.939 220.957 216.421C222.557 214.904 224.483 214.311 226.363 214.756C228.243 215.202 229.944 216.655 231.138 218.835C232.333 221.015 232.936 223.768 232.831 226.562L231.772 254.77C231.749 255.381 231.633 255.978 231.433 256.515C231.233 257.052 230.954 257.518 230.616 257.876C230.279 258.235 229.89 258.478 229.48 258.588C229.07 258.697 228.649 258.671 228.247 258.511Z" fill="#6C63FF"/>
<path d="M242.978 190.838C251.41 190.838 258.245 180.793 258.245 168.4C258.245 156.008 251.41 145.962 242.978 145.962C234.547 145.962 227.712 156.008 227.712 168.4C227.712 180.793 234.547 190.838 242.978 190.838Z" fill="#A0616A"/>
<path d="M298.301 212.484C298.225 212.977 298.175 213.478 298.152 213.982L271.451 236.622L264.961 231.131L258.042 244.443L271.926 258.988L302.389 223.667C303.631 224.343 304.984 224.447 306.268 223.965C307.551 223.483 308.704 222.438 309.574 220.969C310.444 219.5 310.989 217.677 311.136 215.742C311.284 213.807 311.027 211.852 310.4 210.137C309.773 208.422 308.806 207.028 307.627 206.14C306.447 205.253 305.112 204.914 303.799 205.168C302.486 205.423 301.256 206.26 300.274 207.566C299.292 208.873 298.604 210.588 298.301 212.484Z" fill="#A0616A"/>
<path d="M269.238 237.715L257.736 248.685C257.114 249.277 256.357 249.483 255.631 249.256C254.906 249.029 254.272 248.388 253.867 247.474L244.189 225.556C243.152 223.208 242.744 220.38 243.042 217.615C243.341 214.851 244.325 212.347 245.805 210.586C247.285 208.825 249.156 207.932 251.058 208.079C252.96 208.225 254.757 209.402 256.104 211.381L269.693 231.359C269.988 231.792 270.213 232.317 270.352 232.894C270.491 233.472 270.541 234.087 270.497 234.697C270.454 235.306 270.318 235.893 270.1 236.415C269.882 236.937 269.588 237.381 269.238 237.715Z" fill="#6C63FF"/>
<path d="M232.175 186.152C235.023 190.611 240.312 188.218 240.683 182.126C240.712 181.653 240.71 181.177 240.677 180.705C240.485 178.007 239.425 175.557 239.679 172.708C239.736 171.999 239.916 171.323 240.201 170.745C242.471 166.278 247.798 172.743 249.94 168.699C251.253 166.22 249.71 162.316 250.717 159.545C252.048 155.887 255.988 157.691 258.459 155.688C261.208 153.46 261.043 147.261 259.234 143.49C257.027 138.891 253.157 136.438 249.336 136.084C245.515 135.73 241.72 137.249 238.152 139.292C234.099 141.614 230.079 144.822 227.585 150.061C224.552 156.431 224.26 164.995 225.777 172.444C226.7 176.976 229.849 182.511 232.175 186.152Z" fill="#2F2E41"/>
<path d="M355.462 483H118.64C118.475 483 118.317 482.904 118.201 482.732C118.084 482.561 118.019 482.329 118.019 482.086C118.019 481.844 118.084 481.612 118.201 481.44C118.317 481.269 118.475 481.173 118.64 481.173H355.462C355.627 481.173 355.785 481.269 355.901 481.44C356.018 481.612 356.083 481.844 356.083 482.086C356.083 482.329 356.018 482.561 355.901 482.732C355.785 482.904 355.627 483 355.462 483Z" fill="#3F3D56"/>
<path d="M744.571 483H507.749C507.584 483 507.426 482.904 507.309 482.732C507.193 482.561 507.127 482.329 507.127 482.086C507.127 481.844 507.193 481.612 507.309 481.44C507.426 481.269 507.584 481.173 507.749 481.173H744.571C744.735 481.173 744.893 481.269 745.01 481.44C745.127 481.612 745.192 481.844 745.192 482.086C745.192 482.329 745.127 482.561 745.01 482.732C744.893 482.904 744.735 483 744.571 483Z" fill="#3F3D56"/>
<path d="M637.303 310.657C636.461 310.042 635.722 309.163 635.137 308.082C634.552 307.001 634.135 305.745 633.915 304.402C633.696 303.059 633.68 301.661 633.868 300.308C634.056 298.954 634.444 297.678 635.004 296.569L630.197 227.494H640.585L644.405 294.942C645.611 296.448 646.399 298.552 646.62 300.855C646.84 303.157 646.479 305.499 645.603 307.436C644.728 309.373 643.399 310.771 641.869 311.365C640.339 311.958 638.715 311.706 637.303 310.657Z" fill="#FFB8B8"/>
<path d="M627.765 189.373C635.882 189.373 642.462 179.701 642.462 167.771C642.462 155.841 635.882 146.17 627.765 146.17C619.648 146.17 613.067 155.841 613.067 167.771C613.067 179.701 619.648 189.373 627.765 189.373Z" fill="#FFB8B8"/>
<path d="M624.42 267.629L602.485 260.589C601.908 260.402 601.39 259.943 601.008 259.281C600.626 258.619 600.402 257.792 600.37 256.926C600.117 249.732 599.935 231.122 603.705 213.748C604.434 210.417 605.609 207.335 607.162 204.683C608.715 202.032 610.614 199.865 612.747 198.311C614.879 196.757 617.203 195.847 619.579 195.636C621.955 195.425 624.336 195.916 626.58 197.081C628.949 198.304 631.115 200.25 632.936 202.79C634.757 205.33 636.192 208.407 637.147 211.82C638.102 215.232 638.555 218.903 638.477 222.591C638.399 226.279 637.791 229.901 636.694 233.22C631.829 247.901 628.766 258.532 627.588 264.82C627.405 265.795 626.975 266.63 626.385 267.153C625.796 267.676 625.093 267.846 624.42 267.629Z" fill="#6C63FF"/>
<path d="M603.756 472.844L596.419 472.843L592.93 431.254H603.757L603.756 472.844Z" fill="#FFB8B8"/>
<path d="M591.18 469.762H605.328V482.855H582.271C582.271 481.135 582.502 479.433 582.949 477.844C583.397 476.256 584.053 474.812 584.88 473.597C585.708 472.381 586.69 471.416 587.77 470.758C588.851 470.101 590.01 469.762 591.18 469.762Z" fill="#2F2E41"/>
<path d="M677.114 458.869L670.686 464.063L653.993 430.092L663.482 422.425L677.114 458.869Z" fill="#FFB8B8"/>
<path d="M665.084 465.074L677.482 455.056L681.774 466.53L661.569 482.855C661.006 481.349 660.65 479.694 660.521 477.985C660.393 476.276 660.495 474.546 660.821 472.895C661.147 471.244 661.692 469.704 662.423 468.362C663.155 467.02 664.059 465.903 665.084 465.074Z" fill="#2F2E41"/>
<path d="M603.89 449.748L592.596 448.47C591.964 448.401 591.369 448.005 590.916 447.353C590.463 446.701 590.182 445.835 590.122 444.908C588.512 420.233 581.451 295.195 600.55 256.697L600.604 256.59L600.689 256.543C600.86 256.452 617.893 247.524 627.666 263.884C627.972 264.404 628.182 265.033 628.273 265.708C628.363 266.383 628.333 267.081 628.184 267.734L627.811 269.378C627.705 269.844 627.676 270.34 627.728 270.826C627.779 271.312 627.91 271.772 628.108 272.168C630.82 277.557 639.948 298.311 643.536 339.122C643.558 339.382 643.604 339.636 643.671 339.879L670.158 435.513C670.294 436.001 670.361 436.524 670.357 437.051C670.353 437.579 670.277 438.099 670.134 438.583C669.991 439.066 669.783 439.503 669.524 439.867C669.265 440.231 668.958 440.515 668.623 440.703L660.289 445.37C659.682 445.705 659.013 445.709 658.404 445.38C657.796 445.052 657.287 444.414 656.972 443.581L618.735 341.621C618.583 341.215 618.347 340.891 618.062 340.693C617.776 340.496 617.456 340.436 617.146 340.523C616.836 340.609 616.553 340.837 616.337 341.174C616.12 341.512 615.982 341.941 615.941 342.4L606.767 446.311C606.682 447.263 606.365 448.139 605.875 448.773C605.384 449.408 604.752 449.758 604.099 449.759C604.029 449.759 603.96 449.756 603.89 449.748Z" fill="#2F2E41"/>
<path d="M570.627 192.863C570.7 193.338 570.748 193.82 570.77 194.306L596.476 216.101L602.724 210.815L609.385 223.631L598.942 234.57C598.099 235.453 597.083 235.911 596.047 235.874C595.012 235.837 594.012 235.307 593.199 234.364L566.692 203.63C565.496 204.28 564.193 204.381 562.957 203.917C561.721 203.453 560.611 202.447 559.773 201.033C558.936 199.619 558.411 197.863 558.269 196C558.127 194.137 558.374 192.254 558.978 190.603C559.581 188.951 560.513 187.609 561.648 186.754C562.784 185.9 564.069 185.574 565.334 185.819C566.598 186.064 567.782 186.87 568.728 188.128C569.673 189.387 570.336 191.038 570.627 192.863Z" fill="#FFB8B8"/>
<path d="M596.829 213.923C596.907 213.366 597.065 212.839 597.293 212.38C597.522 211.921 597.815 211.54 598.152 211.262L609.949 201.568C611.516 199.791 613.499 199 615.462 199.368C617.426 199.736 619.21 201.233 620.424 203.531C621.637 205.829 622.182 208.741 621.937 211.628C621.693 214.515 620.68 217.142 619.12 218.933L609.715 233.287C609.446 233.697 609.121 234.016 608.761 234.225C608.401 234.433 608.014 234.524 607.628 234.493C607.242 234.462 606.864 234.309 606.522 234.044C606.179 233.78 605.88 233.41 605.643 232.959L597.335 217.134C597.099 216.684 596.931 216.164 596.844 215.609C596.756 215.055 596.752 214.48 596.829 213.923Z" fill="#6C63FF"/>
<path d="M627.364 243.81C627.063 243.453 626.818 243.004 626.646 242.495C626.473 241.985 626.378 241.427 626.366 240.859L625.943 221.005C625.591 218.142 626.025 215.19 627.152 212.797C628.278 210.404 630.004 208.765 631.951 208.239C633.899 207.714 635.908 208.345 637.54 209.994C639.171 211.643 640.291 214.175 640.654 217.036L644.992 235.916C645.116 236.455 645.16 237.026 645.119 237.592C645.079 238.158 644.957 238.704 644.76 239.194C644.563 239.684 644.297 240.105 643.98 240.43C643.662 240.755 643.3 240.976 642.92 241.077L629.536 244.629C629.155 244.73 628.764 244.709 628.389 244.568C628.014 244.427 627.664 244.168 627.364 243.81Z" fill="#6C63FF"/>
<path d="M625.438 162.803C621.661 166.603 616.701 170.509 612.843 166.462C611.636 165.111 610.759 163.223 610.344 161.078C609.928 158.934 609.997 156.65 610.539 154.567C612.386 146.803 617.462 143.384 622.315 140.764C628.625 137.358 635.495 134.648 642.009 137.087C648.523 139.527 654.28 148.796 653.104 158.523C652.158 166.345 647.138 172.854 647.851 180.73C648.568 188.656 654.633 192.828 659.987 194.245C665.341 195.661 671.333 196.116 675.181 201.769C680.089 208.979 678.864 221.868 674.245 229.481C669.626 237.094 662.656 240.545 655.902 242.891C646.953 245.999 637.274 247.633 628.775 242.474C620.276 237.316 613.662 223.43 616.124 210.408C617.164 204.908 619.614 200.26 621.982 195.735C624.349 191.209 626.747 186.477 627.65 180.925C628.402 176.298 627.845 170.926 625.758 167.456C625.378 166.848 625.139 166.08 625.075 165.26C625.011 164.441 625.126 163.612 625.402 162.894L625.438 162.803Z" fill="#2F2E41"/>
</g>
<defs>
<clipPath id="clip0_25_2">
<rect width="630.784" height="475" fill="white" transform="translate(118.019 8)"/>
</clipPath>
</defs>
</svg>
