<svg width="115" height="82" viewBox="0 0 115 82" fill="none" xmlns="http://www.w3.org/2000/svg">
<path d="M35.16 19.84L34.96 26.44C34.96 30.0667 35.0667 33.32 35.28 36.2C35.4933 39.0533 35.9733 42.16 36.72 45.52C36.1333 46 35.2 46.24 33.92 46.24C31.44 46.24 30.2 45.16 30.2 43C30.2 41.2133 30.28 38.48 30.44 34.8C30.6267 31.12 30.72 28.24 30.72 26.16C29.28 28.24 27.76 30.8133 26.16 33.88C24.5867 36.92 23.8 38.7867 23.8 39.48C23.8 40.1733 23.8667 40.7067 24 41.08C23.4133 41.4533 22.6267 41.64 21.64 41.64C20.68 41.64 19.8667 41.3733 19.2 40.84C18.56 40.3067 18.0133 39.5733 17.56 38.64C17.1333 37.7067 16.36 35.88 15.24 33.16C14.1467 30.4133 13.1467 28.0533 12.24 26.08C11.5467 30.3733 11.2 34.1733 11.2 37.48C11.2 40.7867 11.3067 43.4667 11.52 45.52C10.6667 45.84 9.81333 46 8.96 46C7.25333 46 6.4 45.1467 6.4 43.44C6.4 42.1333 6.69333 39.5333 7.28 35.64C7.89333 31.72 8.2 28.4133 8.2 25.72C8.2 23.0267 8.05333 20.5067 7.76 18.16C9.2 17.7867 10.32 17.6 11.12 17.6C12.5867 17.6 13.5733 18.12 14.08 19.16C14.88 20.84 16.0533 23.52 17.6 27.2C19.1733 30.8533 20.4533 33.6667 21.44 35.64C21.7067 35.08 22.32 33.88 23.28 32.04C24.2667 30.1733 25.08 28.5867 25.72 27.28C26.3867 25.9467 27.0533 24.3733 27.72 22.56C28.4133 20.72 28.8533 19.12 29.04 17.76C30 17.4933 30.9333 17.36 31.84 17.36C32.7733 17.36 33.56 17.56 34.2 17.96C34.84 18.36 35.16 18.9867 35.16 19.84ZM41.9322 17.48L50.3722 17.6C54.7455 17.6 57.9455 17.44 59.9722 17.12C60.2655 17.68 60.4122 18.32 60.4122 19.04C60.4122 19.76 60.0922 20.4133 59.4522 21C58.8122 21.56 58.0389 21.84 57.1322 21.84L52.5322 21.32C52.5322 21.5067 52.4655 22.3333 52.3322 23.8C51.9589 27.4 51.7722 31.0133 51.7722 34.64C51.7722 38.2667 52.0522 41.8933 52.6122 45.52C51.7322 45.84 50.8122 46 49.8522 46C48.8922 46 48.0655 45.7333 47.3722 45.2C46.6789 44.64 46.3322 43.8133 46.3322 42.72C46.3322 41.6 46.4655 39.64 46.7322 36.84C46.9989 34.04 47.1322 31.32 47.1322 28.68C47.1322 26.0133 46.9989 23.5333 46.7322 21.24C43.5055 21.4 40.9855 21.8533 39.1722 22.6C38.8522 21.9867 38.6922 21.3067 38.6922 20.56C38.6922 19.7867 38.9989 19.08 39.6122 18.44C40.2255 17.8 40.9989 17.48 41.9322 17.48ZM79.5225 18C80.3758 17.5733 81.2692 17.36 82.2025 17.36C83.1625 17.36 83.9358 17.6533 84.5225 18.24C85.1358 18.8267 85.4425 19.5333 85.4425 20.36C85.4425 21.1867 85.3225 23.0133 85.0825 25.84C84.8425 28.64 84.7225 30.8667 84.7225 32.52C84.7225 37.8267 84.9625 42.24 85.4425 45.76C84.5892 46.08 83.6292 46.24 82.5625 46.24C81.5225 46.24 80.7092 46.0667 80.1225 45.72C78.4158 44.7333 74.4292 38.4933 68.1625 27C68.0558 28.04 68.0025 30.48 68.0025 34.32C68.0025 38.1333 68.2958 41.8667 68.8825 45.52C68.0558 45.84 67.1625 46 66.2025 46C65.2425 46 64.4558 45.6933 63.8425 45.08C63.2558 44.4667 62.9625 43.7333 62.9625 42.88C62.9625 42.0267 63.0825 40.24 63.3225 37.52C63.5892 34.8 63.7225 32.7467 63.7225 31.36C63.7225 26.0533 63.4692 21.6533 62.9625 18.16C63.7092 17.7867 64.8025 17.6 66.2425 17.6C67.6825 17.6 68.6958 18.1733 69.2825 19.32C73.2292 27.3467 77.0025 34.1467 80.6025 39.72C80.5225 34.6 80.4825 31.8933 80.4825 31.6C80.4825 26.6133 80.1625 22.08 79.5225 18Z" fill="black"/>
<path d="M22.1865 61.4404V68.6387C21.9157 68.9857 21.4883 69.3623 20.9043 69.7686C20.3288 70.1748 19.5755 70.526 18.6445 70.8223C17.7135 71.11 16.571 71.2539 15.2168 71.2539C14.0404 71.2539 12.9655 71.0592 11.9922 70.6699C11.0189 70.2721 10.181 69.6924 9.47852 68.9307C8.77604 68.1689 8.23438 67.238 7.85352 66.1377C7.47266 65.0374 7.28223 63.7806 7.28223 62.3672V61.1484C7.28223 59.735 7.45996 58.4782 7.81543 57.3779C8.17936 56.2777 8.69564 55.3467 9.36426 54.585C10.0413 53.8232 10.8496 53.2435 11.7891 52.8457C12.737 52.4479 13.7949 52.249 14.9629 52.249C16.5286 52.249 17.8151 52.5072 18.8223 53.0234C19.8379 53.5397 20.6165 54.2507 21.1582 55.1562C21.6999 56.0534 22.0384 57.0859 22.1738 58.2539H18.7715C18.6784 57.6107 18.4922 57.0479 18.2129 56.5654C17.9336 56.0745 17.5358 55.6937 17.0195 55.4229C16.5117 55.1436 15.8516 55.0039 15.0391 55.0039C14.3535 55.0039 13.7484 55.1393 13.2236 55.4102C12.6989 55.681 12.2588 56.0745 11.9033 56.5908C11.5479 57.1071 11.277 57.7461 11.0908 58.5078C10.9131 59.2695 10.8242 60.1413 10.8242 61.123V62.3672C10.8242 63.3574 10.9258 64.2376 11.1289 65.0078C11.332 65.7695 11.624 66.4128 12.0049 66.9375C12.3942 67.4538 12.8724 67.8473 13.4395 68.1182C14.015 68.3805 14.6667 68.5117 15.3945 68.5117C16.0547 68.5117 16.6006 68.4567 17.0322 68.3467C17.4723 68.2282 17.8236 68.0885 18.0859 67.9277C18.3483 67.7669 18.5514 67.6104 18.6953 67.458V63.9922H15.0264V61.4404H22.1865ZM32.7998 68.0801V61.7451C32.7998 61.2796 32.7194 60.8776 32.5586 60.5391C32.3978 60.2005 32.1523 59.9382 31.8223 59.752C31.4922 59.5658 31.0732 59.4727 30.5654 59.4727C30.1169 59.4727 29.7233 59.5488 29.3848 59.7012C29.0547 59.8535 28.8008 60.0693 28.623 60.3486C28.4453 60.6195 28.3564 60.9326 28.3564 61.2881H24.9922C24.9922 60.721 25.1276 60.1836 25.3984 59.6758C25.6693 59.1595 26.0544 58.7025 26.5537 58.3047C27.0615 57.8984 27.6667 57.5811 28.3691 57.3525C29.0801 57.124 29.8757 57.0098 30.7559 57.0098C31.7969 57.0098 32.7236 57.1875 33.5361 57.543C34.3571 57.89 35.0003 58.4147 35.4658 59.1172C35.9398 59.8197 36.1768 60.7041 36.1768 61.7705V67.7627C36.1768 68.4482 36.2191 69.0365 36.3037 69.5273C36.3968 70.0098 36.5322 70.4287 36.71 70.7842V71H33.2949C33.1341 70.653 33.0114 70.2129 32.9268 69.6797C32.8421 69.138 32.7998 68.6048 32.7998 68.0801ZM33.2695 62.6338L33.2949 64.627H31.1748C30.6501 64.627 30.1888 64.682 29.791 64.792C29.3932 64.8936 29.0674 65.0459 28.8135 65.249C28.5596 65.4437 28.3691 65.6807 28.2422 65.96C28.1152 66.2308 28.0518 66.5397 28.0518 66.8867C28.0518 67.2253 28.1279 67.5299 28.2803 67.8008C28.4411 68.0716 28.6696 68.2874 28.9658 68.4482C29.2705 68.6006 29.626 68.6768 30.0322 68.6768C30.6247 68.6768 31.141 68.5583 31.5811 68.3213C32.0212 68.0758 32.3639 67.7796 32.6094 67.4326C32.8548 67.0856 32.986 66.7555 33.0029 66.4424L33.9678 67.8896C33.8493 68.2367 33.6715 68.6048 33.4346 68.9941C33.1976 69.3835 32.8929 69.7474 32.5205 70.0859C32.1481 70.4245 31.6995 70.7038 31.1748 70.9238C30.6501 71.1439 30.0407 71.2539 29.3467 71.2539C28.458 71.2539 27.6624 71.0762 26.96 70.7207C26.2575 70.3652 25.7031 69.8786 25.2969 69.2607C24.8906 68.6429 24.6875 67.9404 24.6875 67.1533C24.6875 66.4255 24.8229 65.7822 25.0938 65.2236C25.3646 64.665 25.7666 64.1953 26.2998 63.8145C26.833 63.4251 27.4932 63.1331 28.2803 62.9385C29.0758 62.7354 29.9857 62.6338 31.0098 62.6338H33.2695ZM42.7529 51.5V71H39.3887V51.5H42.7529ZM49.5068 51.5V71H46.1426V51.5H49.5068ZM58.876 71.2539C57.835 71.2539 56.8997 71.0846 56.0703 70.7461C55.2409 70.4076 54.5342 69.9378 53.9502 69.3369C53.3747 68.7275 52.9303 68.0208 52.6172 67.2168C52.3125 66.4043 52.1602 65.5326 52.1602 64.6016V64.0938C52.1602 63.0358 52.3125 62.0752 52.6172 61.2119C52.9219 60.3402 53.3535 59.5911 53.9121 58.9648C54.4707 58.3385 55.1393 57.8561 55.918 57.5176C56.6966 57.179 57.5557 57.0098 58.4951 57.0098C59.4684 57.0098 60.3275 57.1748 61.0723 57.5049C61.8171 57.8265 62.4391 58.2835 62.9385 58.876C63.4378 59.4684 63.8145 60.1794 64.0684 61.0088C64.3223 61.8298 64.4492 62.7396 64.4492 63.7383V65.1475H53.6836V62.8369H61.1484V62.583C61.1315 62.0498 61.0299 61.5632 60.8438 61.123C60.6576 60.6745 60.3698 60.319 59.9805 60.0566C59.5911 59.7858 59.0876 59.6504 58.4697 59.6504C57.9704 59.6504 57.5345 59.7604 57.1621 59.9805C56.7982 60.1921 56.4935 60.4967 56.248 60.8945C56.0111 61.2839 55.8333 61.7493 55.7148 62.291C55.5964 62.8327 55.5371 63.4336 55.5371 64.0938V64.6016C55.5371 65.1771 55.6133 65.7103 55.7656 66.2012C55.9264 66.6921 56.1592 67.1195 56.4639 67.4834C56.777 67.8389 57.1494 68.1182 57.5811 68.3213C58.0212 68.516 58.5205 68.6133 59.0791 68.6133C59.7816 68.6133 60.4163 68.4779 60.9834 68.207C61.5589 67.9277 62.0583 67.5173 62.4814 66.9756L64.1699 68.7275C63.8822 69.1507 63.4928 69.557 63.002 69.9463C62.5195 70.3356 61.9355 70.653 61.25 70.8984C60.5645 71.1354 59.7731 71.2539 58.876 71.2539ZM70.0479 60.0693V71H66.6963V57.2637H69.8701L70.0479 60.0693ZM74.2246 57.1748L74.1738 60.2979C73.9876 60.264 73.776 60.2386 73.5391 60.2217C73.3105 60.2048 73.0947 60.1963 72.8916 60.1963C72.3753 60.1963 71.9225 60.2682 71.5332 60.4121C71.1439 60.5475 70.818 60.7464 70.5557 61.0088C70.3018 61.2712 70.1071 61.5928 69.9717 61.9736C69.8363 62.346 69.7601 62.7692 69.7432 63.2432L69.0195 63.1543C69.0195 62.2826 69.1084 61.4743 69.2861 60.7295C69.4639 59.9847 69.722 59.333 70.0605 58.7744C70.3991 58.2158 70.8223 57.7842 71.3301 57.4795C71.8464 57.1663 72.4388 57.0098 73.1074 57.0098C73.2936 57.0098 73.4925 57.0267 73.7041 57.0605C73.9242 57.0859 74.0977 57.124 74.2246 57.1748ZM80.3184 69.4766L84 57.2637H87.5928L82.083 73.082C81.9561 73.4206 81.791 73.7887 81.5879 74.1865C81.3932 74.5843 81.1309 74.9609 80.8008 75.3164C80.4707 75.6803 80.056 75.9766 79.5566 76.2051C79.0658 76.4336 78.4691 76.5479 77.7666 76.5479C77.4619 76.5479 77.1911 76.5267 76.9541 76.4844C76.7171 76.4421 76.4674 76.387 76.2051 76.3193V73.8057C76.2897 73.8141 76.387 73.8184 76.4971 73.8184C76.6156 73.8268 76.7171 73.8311 76.8018 73.8311C77.2926 73.8311 77.6989 73.7718 78.0205 73.6533C78.3421 73.5433 78.6003 73.3613 78.7949 73.1074C78.998 72.862 79.1673 72.5404 79.3027 72.1426L80.3184 69.4766ZM78.5029 57.2637L81.6133 67.3818L82.1592 70.9238L79.8486 71.3428L74.8848 57.2637H78.5029Z" fill="black"/>
<path d="M0 49.5H93" stroke="black" stroke-width="2"/>
</svg>
